<svg width="32" height="32" viewBox="0 0 32 32" fill="none" xmlns="http://www.w3.org/2000/svg">
  <rect width="32" height="32" fill="black"/>
  <g transform="translate(8.5 6) scale(1)">
    <svg viewBox="0 0 15 20" width="15" height="20" fill="none">
      <path d="M4.79633e-07 17.2568C1.08395e-05 14.971 1.09873 12.8296 2.94221 11.5224L3.85738 10.8735C4.45492 10.4498 4.45492 9.55017 3.85738 9.12647L2.94221 8.47756C1.09873 7.1704 1.30297e-05 5.02899 3.01728e-06 2.74315L4.96751e-06 0L2.45752 4.29686e-07L2.45752 2.74315C2.45753 4.21154 3.16335 5.58716 4.34758 6.42685L5.26275 7.07576C7.26321 8.49422 7.26321 11.5057 5.26275 12.9242L4.34758 13.5731C3.16335 14.4128 2.45752 15.7884 2.45751 17.2568L2.45751 20L3.11771e-08 20L4.79633e-07 17.2568ZM12.5425 17.2568C12.5425 15.7884 11.8367 14.4128 10.6525 13.5731L9.73726 12.9242C7.73682 11.5057 7.73682 8.49422 9.73726 7.07576L10.6525 6.42685C11.8367 5.58716 12.5425 4.21153 12.5425 2.74315L12.5425 2.193e-06L15 2.62268e-06L15 2.74315C15 5.029 13.9013 7.1704 12.0578 8.47756L11.1426 9.12648C10.5451 9.55017 10.5451 10.4498 11.1426 10.8735L12.0578 11.5224C13.9013 12.8296 15 14.971 15 17.2568L15 20L12.5425 20L12.5425 17.2568Z" fill="#FEFCF0"/>
      <path d="M6.27145 4.23067L6.27145 1.10213e-06L8.72896 1.53182e-06L8.72896 4.23067C8.72896 4.73345 8.66987 5.23628 8.58256 5.73907C8.33594 7.15937 7.86428 8.57967 7.86428 9.99998C7.86428 11.4203 8.33593 12.8406 8.58256 14.2609C8.66986 14.7637 8.72895 15.2665 8.72895 15.7693L8.72895 20L6.27144 20L6.27144 15.7693C6.27144 15.2665 6.33053 14.7637 6.41784 14.2609C6.66446 12.8406 7.13613 11.4203 7.13613 9.99998C7.13613 8.57967 6.66447 7.15937 6.41784 5.73907C6.33054 5.23628 6.27145 4.73345 6.27145 4.23067Z" fill="#FEFCF0"/>
    </svg>
  </g>
</svg>
